<svg id="SvgjsSvg1001" width="259.1464442100525" height="42.77095031738281" xmlns="http://www.w3.org/2000/svg" version="1.1" xmlns:xlink="http://www.w3.org/1999/xlink" xmlns:svgjs="http://svgjs.com/svgjs" viewBox="107.92677879333496 123.1218490600586 259.1464442100525 42.77095031738281"><g id="SvgjsG1013" transform="matrix(1,0,0,1,232.53522872924805,127.95750427246094)"><path id="SvgjsPath1014" d="M11.627999889373779 8.364000442504882Q14.228999889373778 8.364000442504882 16.23499988937378 9.562500442504884Q18.24099988937378 10.761000442504884 19.33749988937378 12.954000442504883Q20.43399988937378 15.147000442504883 20.43399988937378 18.037000442504883Q20.43399988937378 20.859000442504882 19.35449988937378 23.018000442504885Q18.27499988937378 25.177000442504884 16.31999988937378 26.358500442504884Q14.364999889373781 27.540000442504883 11.76399988937378 27.540000442504883Q9.961999889373779 27.540000442504883 8.49149988937378 26.843000442504884Q7.02099988937378 26.14600044250488 6.01799988937378 24.837000442504884L6.01799988937378 34.085000442504885L-1.1062622062851801e-7 34.085000442504885L-1.1062622062851801e-7 8.568000442504882L6.01799988937378 8.568000442504882L6.01799988937378 11.050000442504881Q7.02099988937378 9.758000442504883 8.448999889373779 9.061000442504884Q9.87699988937378 8.364000442504882 11.627999889373779 8.364000442504882ZM10.16599988937378 22.780000442504882Q12.035999889373779 22.780000442504882 13.200499889373779 21.403000442504883Q14.364999889373781 20.026000442504884 14.364999889373781 17.86700044250488Q14.364999889373781 15.708000442504883 13.200499889373779 14.348000442504883Q12.035999889373779 12.988000442504882 10.16599988937378 12.988000442504882Q8.36399988937378 12.988000442504882 7.19099988937378 14.348000442504883Q6.01799988937378 15.708000442504883 6.01799988937378 17.86700044250488Q6.01799988937378 20.060000442504883 7.165499889373779 21.420000442504882Q8.31299988937378 22.780000442504882 10.16599988937378 22.780000442504882ZM36.15899988937378 8.296000442504884Q39.25299988937378 8.296000442504884 41.13149988937378 10.259500442504883Q43.00999988937378 12.223000442504883 43.00999988937378 15.504000442504882L43.00999988937378 27.336000442504883L36.99199988937378 27.336000442504883L36.99199988937378 17.170000442504882Q36.99199988937378 15.538000442504883 36.09949988937378 14.577500442504883Q35.206999889373776 13.617000442504883 33.67699988937378 13.617000442504883Q31.94299988937378 13.617000442504883 30.897499889373776 14.875000442504883Q29.85199988937378 16.133000442504883 29.85199988937378 18.071000442504882L29.85199988937378 27.336000442504883L23.83399988937378 27.336000442504883L23.83399988937378 1.496000442504883L29.85199988937378 1.496000442504883L29.85199988937378 11.662000442504883Q30.82099988937378 9.996000442504883 32.42749988937378 9.163000442504885Q34.03399988937378 8.330000442504883 36.15899988937378 8.296000442504884ZM53.24399988937378 27.336000442504883L47.24299988937378 27.336000442504883L47.24299988937378 8.568000442504882L53.24399988937378 8.568000442504882L53.24399988937378 27.336000442504883ZM50.26899988937378 4.425048842904289e-7Q51.66299988937378 4.425048842904289e-7 52.55549988937378 0.8925004425048826Q53.447999889373776 1.7850004425048844 53.447999889373776 3.179000442504883Q53.447999889373776 4.573000442504881 52.55549988937378 5.4740004425048845Q51.66299988937378 6.375000442504884 50.26899988937378 6.375000442504884Q48.87499988937378 6.375000442504884 47.99099988937378 5.4740004425048845Q47.10699988937378 4.573000442504881 47.10699988937378 3.179000442504883Q47.10699988937378 1.7850004425048844 47.99099988937378 0.8925004425048826Q48.87499988937378 4.425048842904289e-7 50.26899988937378 4.425048842904289e-7ZM76.95899988937379 1.496000442504883L76.95899988937379 27.336000442504883L70.94099988937378 27.336000442504883L70.94099988937378 24.871000442504883Q68.88399988937378 27.591000442504882 65.29699988937378 27.574000442504882Q62.678999889373785 27.574000442504882 60.69849988937378 26.358500442504884Q58.71799988937378 25.14300044250488 57.62149988937378 22.950000442504884Q56.52499988937378 20.757000442504882 56.52499988937378 17.86700044250488Q56.52499988937378 15.011000442504884 57.60449988937378 12.852000442504883Q58.68399988937378 10.693000442504882 60.63899988937378 9.511500442504882Q62.59399988937378 8.330000442504883 65.16099988937378 8.330000442504883Q67.01399988937378 8.330000442504883 68.47599988937378 9.027000442504882Q69.93799988937378 9.724000442504884 70.94099988937378 11.050000442504881L70.94099988937378 1.496000442504883L76.95899988937379 1.496000442504883ZM66.75899988937378 22.91600044250488Q68.64599988937378 22.91600044250488 69.79349988937378 21.55600044250488Q70.94099988937378 20.196000442504882 70.94099988937378 18.003000442504884Q70.94099988937378 15.844000442504882 69.79349988937378 14.484000442504882Q68.64599988937378 13.124000442504883 66.75899988937378 13.124000442504883Q64.87199988937378 13.124000442504883 63.73299988937377 14.467000442504883Q62.59399988937378 15.810000442504883 62.559999889373785 18.003000442504884Q62.59399988937378 20.196000442504882 63.741499889373785 21.55600044250488Q64.88899988937378 22.91600044250488 66.75899988937378 22.91600044250488ZM90.35499988937377 8.296000442504884Q94.21399988937378 8.296000442504884 96.35599988937378 10.089500442504882Q98.49799988937377 11.883000442504883 98.53199988937378 15.079000442504883L98.53199988937378 27.336000442504883L92.64999988937377 27.336000442504883L92.64999988937377 25.177000442504884Q91.74899988937378 26.36700044250488 90.28699988937377 26.98750044250488Q88.82499988937379 27.60800044250488 86.90399988937378 27.60800044250488Q83.94599988937378 27.60800044250488 82.20349988937377 25.976000442504883Q80.46099988937378 24.344000442504882 80.46099988937378 21.726000442504883Q80.46099988937378 19.040000442504883 82.32249988937377 17.561000442504884Q84.18399988937378 16.082000442504885 87.66899988937378 16.048000442504883L92.61599988937378 16.048000442504883L92.61599988937378 15.776000442504882Q92.61599988937378 14.382000442504882 91.69799988937378 13.600000442504882Q90.77999988937378 12.818000442504882 88.96099988937378 12.818000442504882Q87.77099988937378 12.818000442504882 86.29199988937378 13.217500442504884Q84.81299988937378 13.617000442504883 83.35099988937378 14.382000442504882L81.65099988937378 10.421000442504884Q83.94599988937378 9.350000442504882 86.01999988937378 8.823000442504881Q88.09399988937378 8.296000442504884 90.35499988937377 8.296000442504884ZM88.75699988937377 23.545000442504882Q90.18499988937378 23.545000442504882 91.26449988937378 22.831000442504884Q92.34399988937378 22.11700044250488 92.61599988937378 20.961000442504883L92.61599988937378 19.295000442504882L88.82499988937379 19.295000442504882Q87.46499988937379 19.295000442504882 86.78499988937378 19.779500442504883Q86.10499988937377 20.264000442504884 86.10499988937377 21.318000442504882Q86.10499988937377 22.35500044250488 86.80199988937377 22.950000442504884Q87.49899988937378 23.545000442504882 88.75699988937377 23.545000442504882ZM114.91999988937378 26.333000442504883Q113.91699988937378 26.911000442504882 112.59099988937378 27.259500442504883Q111.26499988937378 27.60800044250488 109.90499988937378 27.60800044250488Q107.11699988937377 27.60800044250488 105.39999988937377 26.061000442504884Q103.68299988937378 24.514000442504884 103.68299988937378 21.658000442504882L103.68299988937378 13.379000442504882L101.06499988937378 13.379000442504882L101.06499988937378 9.435000442504883L103.68299988937378 9.435000442504883L103.68299988937378 4.216000442504882L109.66699988937378 4.216000442504882L109.66699988937378 9.401000442504884L114.57999988937378 9.401000442504884L114.57999988937378 13.379000442504882L109.66699988937378 13.379000442504882L109.66699988937378 20.723000442504883Q109.66699988937378 22.780000442504882 111.33299988937378 22.780000442504882Q112.30199988937377 22.780000442504882 113.72999988937377 22.151000442504884L114.91999988937378 26.333000442504883ZM126.36099988937377 8.296000442504884Q130.21999988937378 8.296000442504884 132.36199988937378 10.089500442504882Q134.50399988937377 11.883000442504883 134.5379998893738 15.079000442504883L134.5379998893738 27.336000442504883L128.6559998893738 27.336000442504883L128.6559998893738 25.177000442504884Q127.75499988937378 26.36700044250488 126.29299988937379 26.98750044250488Q124.83099988937379 27.60800044250488 122.90999988937378 27.60800044250488Q119.95199988937378 27.60800044250488 118.20949988937377 25.976000442504883Q116.46699988937378 24.344000442504882 116.46699988937378 21.726000442504883Q116.46699988937378 19.040000442504883 118.32849988937377 17.561000442504884Q120.18999988937378 16.082000442504885 123.67499988937378 16.048000442504883L128.62199988937377 16.048000442504883L128.62199988937377 15.776000442504882Q128.62199988937377 14.382000442504882 127.70399988937379 13.600000442504882Q126.78599988937378 12.818000442504882 124.96699988937378 12.818000442504882Q123.77699988937378 12.818000442504882 122.29799988937378 13.217500442504884Q120.81899988937379 13.617000442504883 119.35699988937378 14.382000442504882L117.65699988937378 10.421000442504884Q119.95199988937378 9.350000442504882 122.02599988937378 8.823000442504881Q124.09999988937378 8.296000442504884 126.36099988937377 8.296000442504884ZM124.76299988937377 23.545000442504882Q126.19099988937378 23.545000442504882 127.27049988937378 22.831000442504884Q128.34999988937378 22.11700044250488 128.62199988937377 20.961000442504883L128.62199988937377 19.295000442504882L124.83099988937379 19.295000442504882Q123.47099988937379 19.295000442504882 122.79099988937378 19.779500442504883Q122.11099988937377 20.264000442504884 122.11099988937377 21.318000442504882Q122.11099988937377 22.35500044250488 122.80799988937378 22.950000442504884Q123.50499988937378 23.545000442504882 124.76299988937377 23.545000442504882Z " fill="#a7f3d0"></path></g></svg>