<svg width="391" height="84" viewBox="0 0 391 84" fill="none" xmlns="http://www.w3.org/2000/svg">
<path d="M378.705 45.678C374.997 46.0257 371.839 46.4312 369.232 46.8948C366.625 47.3583 364.481 47.9377 362.801 48.633C361.121 49.3282 359.875 50.1684 359.064 51.1533C358.311 52.0804 357.934 53.2102 357.934 54.5428C357.934 56.5707 358.716 58.164 360.281 59.3228C361.845 60.4816 363.931 61.061 366.538 61.061C370.362 61.061 373.346 60.105 375.49 58.193C377.633 56.223 378.705 53.2391 378.705 49.2413V45.678ZM364.278 68.7959C361.729 68.7959 359.383 68.4483 357.239 67.753C355.153 67.1157 353.328 66.1886 351.764 64.9719C350.257 63.7552 349.069 62.3067 348.2 60.6264C347.389 58.8883 346.984 56.9473 346.984 54.8035C346.984 51.9065 347.824 49.502 349.504 47.59C351.184 45.678 353.444 44.1137 356.283 42.8969C359.18 41.6802 362.511 40.7532 366.277 40.1158C370.101 39.4785 374.157 38.9281 378.444 38.4646V37.5955C378.444 35.6255 378.184 33.9742 377.662 32.6416C377.141 31.2511 376.417 30.1792 375.49 29.426C374.62 28.6148 373.578 28.0354 372.361 27.6878C371.202 27.3401 369.985 27.1663 368.711 27.1663C366.103 27.1663 363.902 27.8616 362.106 29.2522C360.367 30.6427 359.44 32.7575 359.325 35.5965H349.156C349.33 33.221 349.938 31.0483 350.981 29.0783C352.024 27.1084 353.415 25.4281 355.153 24.0376C356.891 22.5891 358.919 21.4883 361.237 20.735C363.612 19.9239 366.219 19.5183 369.058 19.5183C371.839 19.5183 374.447 19.8659 376.88 20.5612C379.314 21.2565 381.428 22.3863 383.224 23.9507C385.02 25.5151 386.411 27.6009 387.396 30.2082C388.381 32.7575 388.844 35.8862 388.786 39.5944C388.786 40.1738 388.758 40.927 388.7 41.854C388.7 42.7811 388.7 43.795 388.7 44.8958C388.7 45.9967 388.671 47.1555 388.613 48.3722C388.613 49.531 388.613 50.6319 388.613 51.6748C388.613 54.6297 388.729 57.5556 388.96 60.4526C389.192 63.2917 389.54 65.6962 390.003 67.6661H380.53C380.356 66.6811 380.183 65.7831 380.009 64.9719C379.893 64.1608 379.777 62.944 379.661 61.3217C378.155 63.8711 376.069 65.7541 373.404 66.9708C370.796 68.1876 367.755 68.7959 364.278 68.7959Z" fill="white"/>
<path d="M324.316 8.5676H334.658V20.9087H344.044V28.3829H334.658V53.8474C334.658 56.2229 335.034 57.8162 335.788 58.6274C336.541 59.3806 338.018 59.7572 340.22 59.7572H343.957V67.666H336.309C333.818 67.666 331.79 67.4922 330.226 67.1445C328.661 66.7389 327.444 66.0726 326.575 65.1456C325.706 64.2186 325.098 62.9729 324.75 61.4085C324.461 59.7862 324.316 57.7873 324.316 55.4117V28.3829H317.363V20.9087H324.316V8.5676Z" fill="white"/>
<path d="M304.904 45.678C301.195 46.0257 298.038 46.4312 295.431 46.8948C292.823 47.3583 290.68 47.9377 288.999 48.633C287.319 49.3282 286.073 50.1684 285.262 51.1533C284.509 52.0804 284.132 53.2102 284.132 54.5428C284.132 56.5707 284.915 58.164 286.479 59.3228C288.043 60.4816 290.129 61.061 292.736 61.061C296.56 61.061 299.544 60.105 301.688 58.193C303.832 56.223 304.904 53.2391 304.904 49.2413V45.678ZM290.477 68.7959C287.927 68.7959 285.581 68.4483 283.437 67.753C281.351 67.1157 279.526 66.1886 277.962 64.9719C276.456 63.7552 275.268 62.3067 274.399 60.6264C273.588 58.8883 273.182 56.9473 273.182 54.8035C273.182 51.9065 274.022 49.502 275.702 47.59C277.383 45.678 279.642 44.1137 282.481 42.8969C285.378 41.6802 288.71 40.7532 292.476 40.1158C296.3 39.4785 300.355 38.9281 304.643 38.4646V37.5955C304.643 35.6255 304.382 33.9742 303.861 32.6416C303.339 31.2511 302.615 30.1792 301.688 29.426C300.819 28.6148 299.776 28.0354 298.559 27.6878C297.4 27.3401 296.184 27.1663 294.909 27.1663C292.302 27.1663 290.1 27.8616 288.304 29.2522C286.566 30.6427 285.639 32.7575 285.523 35.5965H275.355C275.529 33.221 276.137 31.0483 277.18 29.0783C278.223 27.1084 279.613 25.4281 281.351 24.0376C283.09 22.5891 285.117 21.4883 287.435 20.735C289.81 19.9239 292.418 19.5183 295.257 19.5183C298.038 19.5183 300.645 19.8659 303.078 20.5612C305.512 21.2565 307.627 22.3863 309.423 23.9507C311.219 25.5151 312.609 27.6009 313.594 30.2082C314.579 32.7575 315.043 35.8862 314.985 39.5944C314.985 40.1738 314.956 40.927 314.898 41.854C314.898 42.7811 314.898 43.795 314.898 44.8958C314.898 45.9967 314.869 47.1555 314.811 48.3722C314.811 49.531 314.811 50.6319 314.811 51.6748C314.811 54.6297 314.927 57.5556 315.159 60.4526C315.39 63.2917 315.738 65.6962 316.202 67.6661H306.729C306.555 66.6811 306.381 65.7831 306.207 64.9719C306.091 64.1608 305.975 62.944 305.86 61.3217C304.353 63.8711 302.267 65.7541 299.602 66.9708C296.995 68.1876 293.953 68.7959 290.477 68.7959Z" fill="white"/>
<path d="M256.553 4.6589H266.895V67.6682H256.553V61.4976C255.163 63.8152 253.28 65.6113 250.904 66.886C248.529 68.1607 245.777 68.798 242.648 68.798C239.867 68.798 237.231 68.2476 234.739 67.1468C232.306 65.988 230.162 64.3367 228.308 62.1929C226.454 60.0491 224.977 57.4708 223.876 54.458C222.833 51.4451 222.311 48.0557 222.311 44.2896C222.311 40.5814 222.833 37.221 223.876 34.2081C224.977 31.1952 226.454 28.6169 228.308 26.4732C230.162 24.3294 232.306 22.7071 234.739 21.6062C237.231 20.4474 239.867 19.868 242.648 19.868C245.777 19.868 248.529 20.5054 250.904 21.7801C253.28 23.0547 255.163 24.8508 256.553 27.1684V4.6589ZM256.988 44.2896C256.988 41.6244 256.669 39.2778 256.032 37.2499C255.394 35.222 254.525 33.5708 253.425 32.2961C252.382 30.9635 251.107 29.9785 249.601 29.3412C248.152 28.6459 246.588 28.2983 244.908 28.2983C243.169 28.2983 241.576 28.6749 240.128 29.4281C238.679 30.1813 237.433 31.2532 236.391 32.6437C235.348 34.0343 234.536 35.7145 233.957 37.6845C233.378 39.6544 233.088 41.8561 233.088 44.2896C233.088 49.2724 234.189 53.2123 236.391 56.1093C238.592 58.9483 241.431 60.3678 244.908 60.3678C246.588 60.3678 248.152 60.0491 249.601 59.4118C251.107 58.7165 252.382 57.7026 253.425 56.37C254.525 55.0374 255.394 53.3861 256.032 51.4161C256.669 49.3883 256.988 47.0127 256.988 44.2896Z" fill="white"/>
<path d="M216.494 20.9102V67.6675H206.152V20.9102H216.494Z" fill="white"/>
<path d="M167.924 27.4292C169.257 24.9957 171.111 23.1416 173.486 21.867C175.92 20.5344 178.788 19.868 182.09 19.868C184.929 19.868 187.334 20.3026 189.304 21.1717C191.331 22.0408 192.983 23.2865 194.257 24.9088C195.532 26.5311 196.459 28.4721 197.038 30.7317C197.676 32.9914 197.994 35.5117 197.994 38.2928V67.6682H187.652V40.8132C187.652 39.2488 187.565 37.7134 187.392 36.207C187.218 34.7006 186.812 33.368 186.175 32.2092C185.596 30.9924 184.697 30.0364 183.481 29.3412C182.322 28.6459 180.758 28.2983 178.788 28.2983C176.818 28.2983 175.138 28.6749 173.747 29.4281C172.356 30.1234 171.227 31.1083 170.358 32.383C169.488 33.6577 168.851 35.1931 168.446 36.9892C168.098 38.7853 167.924 40.7263 167.924 42.8121V67.6682H157.582V4.6589H167.924V27.4292Z" fill="white"/>
<path d="M117.307 44.2883C117.307 47.0115 117.597 49.387 118.176 51.4149C118.813 53.3848 119.682 55.0361 120.783 56.3687C121.884 57.7013 123.159 58.7153 124.607 59.4106C126.114 60.0479 127.707 60.3666 129.387 60.3666C133.037 60.3666 135.876 58.947 137.904 56.108C139.932 53.211 140.946 49.2711 140.946 44.2883C140.946 39.3635 139.932 35.4815 137.904 32.6425C135.876 29.7455 133.037 28.297 129.387 28.297C127.707 28.297 126.114 28.6446 124.607 29.3399C123.159 29.9772 121.884 30.9622 120.783 32.2948C119.682 33.5695 118.813 35.2208 118.176 37.2487C117.597 39.2765 117.307 41.6231 117.307 44.2883ZM117.742 20.9097V27.1672C119.132 24.8496 121.015 23.0535 123.391 21.7788C125.766 20.5041 128.518 19.8668 131.647 19.8668C134.486 19.8668 137.122 20.4462 139.556 21.605C142.047 22.7058 144.191 24.3281 145.987 26.4719C147.783 28.6157 149.173 31.194 150.158 34.2068C151.201 37.2197 151.723 40.5802 151.723 44.2883C151.723 48.0544 151.201 51.4439 150.158 54.4567C149.173 57.4696 147.783 60.0479 145.987 62.1917C144.191 64.3354 142.047 65.9867 139.556 67.1455C137.122 68.2463 134.486 68.7968 131.647 68.7968C128.518 68.7968 125.766 68.1594 123.391 66.8848C121.015 65.6101 119.132 63.814 117.742 61.4964V82.8761H107.399V20.9097H117.742Z" fill="white"/>
<path d="M218.555 8.35527C218.555 12.3482 215.318 15.5851 211.325 15.5851C207.332 15.5851 204.095 12.3482 204.095 8.35527C204.095 4.36237 207.332 1.12549 211.325 1.12549C215.318 1.12549 218.555 4.36237 218.555 8.35527Z" fill="white"/>
<path fill-rule="evenodd" clip-rule="evenodd" d="M2.87046 7.76991C0 11.9937 0 17.9013 0 29.7165V54.2845C0 66.0997 0 72.0073 2.87046 76.2311C4.04646 77.9615 5.53899 79.454 7.26942 80.63C11.4932 83.5005 17.4008 83.5005 29.216 83.5005H53.784C65.5992 83.5005 71.5068 83.5005 75.7306 80.63C77.461 79.454 78.9535 77.9615 80.1295 76.2311C83 72.0073 83 66.0997 83 54.2845V29.7165C83 17.9013 83 11.9937 80.1295 7.76991C78.9535 6.03947 77.461 4.54695 75.7306 3.37095C71.5068 0.500488 65.5992 0.500488 53.784 0.500488H29.216C17.4008 0.500488 11.4932 0.500488 7.26942 3.37095C5.53899 4.54695 4.04646 6.03947 2.87046 7.76991ZM71.6369 55.4028C71.6002 53.6734 70.1684 52.3013 68.439 52.3381C66.7095 52.3749 65.3374 53.8067 65.3742 55.5361C65.4894 60.9519 64.108 63.4704 62.3604 64.7131C60.4189 66.0937 57.0169 66.6704 51.4265 65.8393C49.7155 65.585 48.1223 66.7659 47.8679 68.4769C47.6136 70.1879 48.7944 71.7811 50.5054 72.0354C56.5037 72.927 61.9968 72.6581 65.9905 69.8182C70.1782 66.8404 71.7723 61.7636 71.6369 55.4028Z" fill="white"/>
</svg>
