<?xml version="1.0" encoding="UTF-8"?>
<svg id="Layer_2" data-name="Layer 2" xmlns="http://www.w3.org/2000/svg" viewBox="0 0 301.72 58.96">
  <defs>
    <style>
      .cls-1 {
        fill: #1c1a33;
      }
    </style>
  </defs>
  <g id="Layer_1-2" data-name="Layer 1">
    <g>
      <g>
        <path class="cls-1" d="m7.06,33.98l-1.76,1.76c.03.12.07.23.1.35l2.12-2.12h-.45Z"/>
        <path class="cls-1" d="m9.68,33.98l-3.77,3.77c.04.11.07.23.12.34l4.1-4.1h-.45Z"/>
        <path class="cls-1" d="m12.3,33.98l-5.64,5.64c.05.1.09.21.14.31l5.95-5.95h-.45Z"/>
        <path class="cls-1" d="m14.92,33.98l-7.4,7.4c.05.1.11.19.17.29l7.69-7.69h-.45Z"/>
        <path class="cls-1" d="m17.54,33.98l-9.04,9.04c.06.09.12.19.18.28l9.31-9.31h-.45Z"/>
        <path class="cls-1" d="m20.16,33.98l-10.58,10.58c.07.09.13.17.2.25l10.83-10.83h-.45Z"/>
        <path class="cls-1" d="m22.78,33.98l-12.02,12.02c.07.08.14.16.21.24l12.26-12.26h-.45Z"/>
        <path class="cls-1" d="m24.98,34.41l-12.93,12.93c.08.07.15.15.23.22l12.7-12.7v-.45Z"/>
        <path class="cls-1" d="m24.98,37.03l-11.56,11.56c.08.07.16.14.25.21l11.31-11.31v-.45Z"/>
        <path class="cls-1" d="m24.98,39.65l-10.08,10.08c.09.06.18.13.26.19l9.82-9.82v-.45Z"/>
        <path class="cls-1" d="m24.98,42.27l-8.51,8.51c.09.06.19.11.28.17l8.23-8.23v-.45Z"/>
        <path class="cls-1" d="m24.98,44.89l-6.83,6.83c.1.05.2.1.3.15l6.53-6.53v-.45Z"/>
        <path class="cls-1" d="m24.98,47.51l-5.04,5.04c.11.04.22.09.33.13l4.72-4.72v-.45Z"/>
        <path class="cls-1" d="m24.98,50.13l-3.13,3.13c.11.04.23.07.34.11l2.78-2.78v-.45Z"/>
        <path class="cls-1" d="m24.98,52.75l-1.07,1.07c.12.03.24.06.37.09l.7-.7v-.45Z"/>
        <polygon class="cls-1" points="29.48 58.96 29.48 58.96 29.48 58.96 29.48 58.96"/>
        <g>
          <path class="cls-1" d="m13.83,54.45H4.5v-9.32C1.65,40.59,0,35.23,0,29.48v29.48h29.48c-5.75,0-11.12-1.65-15.65-4.5Z"/>
          <path class="cls-1" d="m29.48,29.48H4.5c0,1.54.15,3.04.41,4.5h20.06v20.06c1.46.27,2.97.41,4.5.41v-24.98Z"/>
          <path class="cls-1" d="m29.48,0C13.2,0,0,13.2,0,29.48c0,5.75,1.65,11.12,4.5,15.65,2.37,3.77,5.56,6.96,9.32,9.32,4.54,2.85,9.9,4.5,15.65,4.5,16.28,0,29.48-13.2,29.48-29.48S45.76,0,29.48,0Zm0,54.45c-1.54,0-3.04-.15-4.5-.41-.23-.04-.47-.09-.7-.13-.12-.03-.25-.06-.37-.09-.58-.13-1.15-.28-1.71-.45-.12-.04-.23-.07-.34-.11-.54-.17-1.07-.37-1.59-.58-.11-.04-.22-.08-.33-.13-.51-.21-1-.44-1.49-.68-.1-.05-.2-.1-.3-.15-.47-.24-.94-.5-1.4-.77-.09-.06-.19-.11-.28-.17-.45-.27-.88-.56-1.3-.86-.09-.06-.18-.13-.26-.19-.42-.3-.83-.61-1.23-.94-.08-.07-.16-.14-.25-.21-.39-.33-.77-.67-1.14-1.03-.08-.07-.16-.15-.23-.22-.37-.36-.72-.72-1.07-1.1-.07-.08-.14-.16-.21-.24-.34-.38-.67-.78-.98-1.18-.07-.08-.13-.17-.2-.25-.31-.41-.61-.83-.9-1.27-.06-.09-.12-.18-.18-.28-.29-.44-.56-.89-.82-1.35-.05-.1-.11-.19-.17-.29-.26-.47-.49-.96-.72-1.45-.05-.1-.09-.21-.14-.31-.23-.5-.44-1.01-.63-1.54-.04-.11-.08-.23-.12-.34-.19-.54-.36-1.09-.52-1.65-.03-.12-.07-.23-.1-.35-.15-.58-.27-1.17-.38-1.76-.27-1.46-.41-2.97-.41-4.5C4.5,15.71,15.71,4.5,29.48,4.5s24.98,11.2,24.98,24.98-11.2,24.98-24.98,24.98Z"/>
        </g>
      </g>
      <g>
        <path class="cls-1" d="m91.71,16.38c-4.64,0-7.75,2.12-9.69,4.82l-.77-4.46h-5.52v41.83h6.34v-15.98c1.88,2.7,5.05,4.58,9.64,4.58,8.16,0,14.1-6.11,14.1-15.39s-5.94-15.4-14.1-15.4Zm-1.06,25.44c-5.23,0-8.64-4.23-8.64-10.16s3.41-9.87,8.64-9.87,8.69,4.05,8.69,9.99-3.46,10.04-8.69,10.04Z"/>
        <path class="cls-1" d="m128.06,16.38c-4.05,0-7.17,1.59-9.23,4.17V5.69h-6.34v41.12h6.34v-15.62c0-5.7,3-9.23,7.76-9.23s6.99,3.05,6.99,8.23v16.62h6.41v-17.15c0-9.1-4.87-13.28-11.92-13.28Z"/>
        <path class="cls-1" d="m157.9,12.1c2.4,0,4.29-1.76,4.29-4.23s-1.88-4.17-4.29-4.17-4.23,1.76-4.23,4.17,1.88,4.23,4.23,4.23Zm3.23,29.14v-24.49h-15.1v5.58h8.69v18.91h-8.69v5.58h23.67v-5.58h-8.57Z"/>
        <path class="cls-1" d="m197.71,20.73c-1.94-2.53-5.05-4.35-9.58-4.35-8.11,0-14.16,6.11-14.16,15.4s5.94,15.39,14.1,15.39c4.64,0,7.75-2.23,9.69-4.87l.77,4.52h5.52V5.69h-6.34v15.04Zm-8.58,21.09c-5.23,0-8.69-4.17-8.69-10.04s3.46-9.99,8.69-9.99,8.64,4.11,8.64,10.1-3.41,9.93-8.64,9.93Z"/>
        <path class="cls-1" d="m239.06,41.3c-1.35,0-1.88-.41-1.88-1.94v-12.05c0-7.11-4.58-10.93-12.51-10.93s-12.51,3.71-13.21,9.52h6.28c.47-2.64,2.93-4.4,6.64-4.4,4.11,0,6.52,2.05,6.52,5.4v1.82h-7.46c-8.34,0-12.75,3.41-12.75,9.64,0,5.58,4.52,8.81,11.05,8.81,4.7,0,7.81-2,9.81-4.94.06,2.88,1.53,4.58,5.46,4.58h3.29v-5.52h-1.24Zm-8.16-6.7c0,4.53-3.11,7.64-8.28,7.64-3.41,0-5.52-1.76-5.52-4.29,0-3.05,2.17-4.52,6.05-4.52h7.75v1.17Z"/>
        <path class="cls-1" d="m267.31,46.82v-5.58h-7.28c-2.41,0-3.23-.88-3.23-3.23v-15.68h10.22v-5.58h-10.22v-8.4h-6.41v8.4h-7.52v5.58h7.52v16.33c0,5.46,2.47,8.16,8.23,8.16h8.69Z"/>
        <path class="cls-1" d="m300.48,41.3c-1.35,0-1.88-.41-1.88-1.94v-12.05c0-7.11-4.58-10.93-12.51-10.93s-12.51,3.71-13.21,9.52h6.28c.47-2.64,2.93-4.4,6.64-4.4,4.11,0,6.52,2.05,6.52,5.4v1.82h-7.46c-8.34,0-12.75,3.41-12.75,9.64,0,5.58,4.52,8.81,11.05,8.81,4.7,0,7.81-2,9.81-4.94.06,2.88,1.53,4.58,5.46,4.58h3.29v-5.52h-1.24Zm-8.16-6.7c0,4.53-3.11,7.64-8.28,7.64-3.41,0-5.52-1.76-5.52-4.29,0-3.05,2.17-4.52,6.05-4.52h7.75v1.17Z"/>
      </g>
    </g>
  </g>
</svg>