<?xml version="1.0" encoding="UTF-8"?>
<svg id="Layer_2" data-name="Layer 2" xmlns="http://www.w3.org/2000/svg" viewBox="0 0 282.47 55.1">
  <defs>
    <style>
      .cls-1 {
        fill: #fffcf3;
      }
    </style>
  </defs>
  <g id="Layer_1-2" data-name="Layer 1">
    <g>
      <path class="cls-1" d="m26.86,0C12.03,0,0,12.03,0,26.86v26.86h26.86c14.84,0,26.86-12.03,26.86-26.86S41.7,0,26.86,0Zm-4.33,46.42l-2.04,2.04c-.5-.15-.99-.32-1.47-.51l3.51-3.51v1.98Zm0-2.39l-3.82,3.82c-.47-.18-.93-.38-1.38-.59l5.2-5.2v1.97Zm0-2.39l-5.47,5.47c-.44-.21-.88-.43-1.3-.68l6.78-6.77v1.98Zm0-7.16l-9.86,9.86c-.36-.29-.7-.61-1.04-.93l10.91-10.91v1.97Zm0,.41v1.98l-8.49,8.49c-.39-.27-.76-.55-1.13-.85l9.63-9.63Zm0,2.39v1.97l-7.03,7.03c-.41-.24-.83-.48-1.23-.75l8.26-8.26Zm-1.72,11.27l1.72-1.72v2.14c-.58-.11-1.15-.26-1.72-.42Zm-9.41-5.33c-.34-.32-.67-.65-.98-.99l11.02-11.02h1.09v.89l-11.12,11.12Zm-1.18-1.21c-.31-.35-.63-.69-.92-1.05l9.75-9.75h1.97l-10.8,10.8Zm-1.1-1.29c-.29-.37-.58-.74-.85-1.13l8.38-8.38h1.98l-9.51,9.51Zm-1.01-1.38c-.27-.4-.51-.81-.75-1.23l6.91-6.91h1.97l-8.14,8.14Zm-.9-1.48c-.24-.43-.45-.87-.67-1.31l5.34-5.34h1.98l-6.65,6.65Zm-.8-1.59c-.21-.46-.4-.92-.58-1.39l3.67-3.67h1.97l-5.06,5.06Zm-.69-1.69c-.18-.49-.35-.98-.49-1.48l1.89-1.89h1.98l-3.37,3.37Zm-.58-1.81c-.14-.51-.28-1.03-.38-1.56h1.94l-1.56,1.56Zm-.81,16.64v-7.93c.22.33.44.66.67.98l-.15.15.22.19.11-.11c1.93,2.64,4.32,4.92,7.08,6.71h-7.93Zm22.53,0v-22.53H4.33C4.33,14.44,14.44,4.33,26.86,4.33s22.53,10.11,22.53,22.53-10.11,22.53-22.53,22.53Z"/>
      <g>
        <path class="cls-1" d="m91.08,16.66c-4.23,0-7.06,1.93-8.83,4.39l-.7-4.07h-5.03v38.12h5.78v-14.56c1.72,2.46,4.6,4.18,8.78,4.18,7.44,0,12.85-5.57,12.85-14.02s-5.41-14.03-12.85-14.03Zm-.96,23.18c-4.77,0-7.87-3.85-7.87-9.26s3.11-8.99,7.87-8.99,7.92,3.69,7.92,9.1-3.16,9.15-7.92,9.15Z"/>
        <path class="cls-1" d="m124.21,16.66c-3.69,0-6.53,1.45-8.41,3.8V6.92h-5.78v37.48h5.78v-14.24c0-5.2,2.73-8.41,7.07-8.41s6.37,2.78,6.37,7.5v15.15h5.84v-15.63c0-8.3-4.44-12.1-10.87-12.1Z"/>
        <path class="cls-1" d="m151.4,12.76c2.19,0,3.91-1.61,3.91-3.85s-1.72-3.8-3.91-3.8-3.85,1.61-3.85,3.8,1.71,3.85,3.85,3.85Zm2.94,26.55v-22.32h-13.76v5.09h7.92v17.23h-7.92v5.09h21.57v-5.09h-7.81Z"/>
        <path class="cls-1" d="m187.68,20.63c-1.77-2.3-4.6-3.96-8.73-3.96-7.39,0-12.9,5.57-12.9,14.03s5.41,14.02,12.85,14.02c4.23,0,7.06-2.03,8.83-4.44l.7,4.12h5.03V6.92h-5.78v13.71Zm-7.82,19.22c-4.77,0-7.92-3.8-7.92-9.15s3.16-9.1,7.92-9.1,7.87,3.75,7.87,9.21-3.11,9.05-7.87,9.05Z"/>
        <path class="cls-1" d="m225.36,39.37c-1.23,0-1.71-.37-1.71-1.77v-10.98c0-6.48-4.18-9.96-11.4-9.96s-11.4,3.38-12.04,8.67h5.73c.43-2.41,2.67-4.01,6.05-4.01,3.75,0,5.94,1.87,5.94,4.92v1.66h-6.8c-7.6,0-11.62,3.11-11.62,8.78,0,5.09,4.12,8.03,10.07,8.03,4.28,0,7.12-1.82,8.94-4.5.06,2.63,1.39,4.18,4.98,4.18h3v-5.03h-1.13Zm-7.44-6.11c0,4.13-2.83,6.96-7.55,6.96-3.11,0-5.03-1.6-5.03-3.91,0-2.78,1.98-4.12,5.51-4.12h7.06v1.07Z"/>
        <path class="cls-1" d="m251.1,44.4v-5.09h-6.64c-2.2,0-2.94-.8-2.94-2.94v-14.29h9.31v-5.09h-9.31v-7.66h-5.84v7.66h-6.85v5.09h6.85v14.88c0,4.98,2.25,7.44,7.5,7.44h7.92Z"/>
        <path class="cls-1" d="m281.34,39.37c-1.23,0-1.71-.37-1.71-1.77v-10.98c0-6.48-4.18-9.96-11.4-9.96s-11.4,3.38-12.04,8.67h5.73c.43-2.41,2.67-4.01,6.05-4.01,3.75,0,5.94,1.87,5.94,4.92v1.66h-6.8c-7.6,0-11.62,3.11-11.62,8.78,0,5.09,4.12,8.03,10.07,8.03,4.28,0,7.12-1.82,8.94-4.5.06,2.63,1.39,4.18,4.98,4.18h3v-5.03h-1.13Zm-7.44-6.11c0,4.13-2.83,6.96-7.55,6.96-3.11,0-5.03-1.6-5.03-3.91,0-2.78,1.98-4.12,5.51-4.12h7.06v1.07Z"/>
      </g>
    </g>
  </g>
</svg>